<svg width="50" height="50" viewBox="0 0 50 50" fill="none" xmlns="http://www.w3.org/2000/svg">
<path d="M36.7188 35.1562V40.8914C36.7188 41.2596 36.5888 41.6161 36.3517 41.8978C36.1145 42.1795 35.7855 42.3685 35.4227 42.4312C33.7877 42.7381 32.1315 42.9178 30.4688 42.9687C28.8591 42.9706 27.2542 42.7919 25.6844 42.4359C15.2399 40.3125 8.90626 33.9789 6.78283 23.5344C6.42686 21.9645 6.24813 20.3597 6.25001 18.75C6.30094 17.0873 6.48065 15.431 6.78751 13.7961C6.8503 13.4332 7.03922 13.1042 7.32095 12.8671C7.60268 12.63 7.95911 12.4999 8.32736 12.5H14.0625C14.4769 12.5 14.8743 12.6646 15.1674 12.9576C15.4604 13.2507 15.625 13.6481 15.625 14.0625V21.875C15.625 22.2894 15.4604 22.6868 15.1674 22.9799C14.8743 23.2729 14.4769 23.4375 14.0625 23.4375H12.5C13.4316 26.5827 15.1345 29.4452 17.454 31.7647C19.7735 34.0843 22.636 35.7872 25.7813 36.7187V35.1562C25.7813 34.7418 25.9459 34.3444 26.2389 34.0514C26.5319 33.7584 26.9294 33.5937 27.3438 33.5937H35.1563C35.5707 33.5937 35.9681 33.7584 36.2611 34.0514C36.5541 34.3444 36.7188 34.7418 36.7188 35.1562ZM35.1563 26.5625C34.9491 26.5625 34.7503 26.4802 34.6038 26.3337C34.4573 26.1872 34.375 25.9884 34.375 25.7812C34.3723 23.2957 33.3837 20.9127 31.6262 19.1551C29.8686 17.3975 27.4856 16.4089 25 16.4062C24.7928 16.4062 24.5941 16.3239 24.4476 16.1774C24.3011 16.0309 24.2188 15.8322 24.2188 15.625C24.2188 15.4178 24.3011 15.2191 24.4476 15.0726C24.5941 14.9261 24.7928 14.8437 25 14.8437C27.8999 14.8469 30.6801 16.0002 32.7306 18.0507C34.7811 20.1012 35.9344 22.8814 35.9375 25.7812C35.9375 25.9884 35.8552 26.1872 35.7087 26.3337C35.5622 26.4802 35.3635 26.5625 35.1563 26.5625Z" fill="white"/>
<path d="M42.9688 26.5625C42.7615 26.5625 42.5628 26.4802 42.4163 26.3337C42.2698 26.1872 42.1875 25.9885 42.1875 25.7812C42.1823 21.2244 40.3699 16.8557 37.1477 13.6336C33.9255 10.4114 29.5568 8.59892 25 8.59375C24.7928 8.59375 24.5941 8.51144 24.4476 8.36493C24.3011 8.21841 24.2188 8.0197 24.2188 7.8125C24.2188 7.6053 24.3011 7.40659 24.4476 7.26007C24.5941 7.11356 24.7928 7.03125 25 7.03125C29.971 7.03704 34.7368 9.01434 38.2519 12.5294C41.7669 16.0444 43.7442 20.8102 43.75 25.7812C43.75 25.9885 43.6677 26.1872 43.5212 26.3337C43.3747 26.4802 43.176 26.5625 42.9688 26.5625Z" fill="white"/>
</svg>
